<svg width="1344" height="798" viewBox="0 0 1344 798" fill="none" xmlns="http://www.w3.org/2000/svg">
<path d="M932.418 0.657104C978.068 -0.0550224 1020.2 25.0932 1041.24 65.6112L1329.91 621.53C1371.8 702.202 1312.69 798.44 1221.8 797.556L119.584 786.826C31.6365 785.97 -25.7937 694.232 11.8577 614.747L265.973 78.287C285.617 36.8166 327.111 10.1026 372.993 9.3866L932.418 0.657104ZM437.229 244C433.734 244 430.555 246.024 429.075 249.19L291.361 543.955C288.604 549.855 292.833 556.64 299.344 556.764L1033.25 570.71C1040.1 570.84 1044.58 563.573 1041.39 557.513L878.532 248.801C876.975 245.848 873.911 244 870.573 244H437.229Z" fill="url(#paint0_linear_31_9)"/>
<defs>
<linearGradient id="paint0_linear_31_9" x1="1115" y1="-39.5" x2="187.5" y2="631.5" gradientUnits="userSpaceOnUse">
<stop stop-color="#02DDFF"/>
<stop offset="1" stop-color="#DC8CBC"/>
</linearGradient>
</defs>
</svg>
